<?xml version="1.0"?>
<svg xmlns:rdf="http://www.w3.org/1999/02/22-rdf-syntax-ns#" xmlns="http://www.w3.org/2000/svg" xmlns:cc="http://creativecommons.org/ns#" xmlns:xlink="http://www.w3.org/1999/xlink" xmlns:dc="http://purl.org/dc/elements/1.1/" xmlns:svg="http://www.w3.org/2000/svg" id="svg2" viewBox="0 0 90 90" version="1.1">
  <defs id="defs4">
    <filter id="filter3802">
      <feGaussianBlur id="feGaussianBlur3804" stdDeviation="0.59073866"/>
    </filter>
    <filter id="filter3830" y="-2.4173" width="1.3446" x="-.17229" height="5.8345">
      <feGaussianBlur id="feGaussianBlur3832" stdDeviation="3.3678499"/>
    </filter>
    <filter id="filter3844" y="-.49322" width="2.7038" x="-.85192" height="1.9864">
      <feGaussianBlur id="feGaussianBlur3846" stdDeviation="1.4953936"/>
    </filter>
    <filter id="filter3876">
      <feGaussianBlur id="feGaussianBlur3878" stdDeviation="0.60982078"/>
    </filter>
  </defs>
  <g id="layer1" transform="translate(0 -962.36)">
    <g id="g3880" transform="translate(-2.6809 8.617)">
      <path id="path3866" d="m22.787 992.92c17.894-9.1278 32.775-4.7017 47.681-0.38298 0.93078 3.3192 0.5329 6.6383-0.57447 9.9574 0 0-9.5223-4.639-13.404-2.2978-5.6349 3.3984-5.3617 19.34-5.3617 19.34-3.4486 0.5654-7.5551 1.0969-11.489-0.766 0 0 1.1909-13.654-3.4468-17.234-3.442-2.6566-13.021 0.766-13.021 0.766-0.7309-3.1277-1.6282-6.2554-0.38298-9.383z" transform="matrix(1.0001 0 0 .95148 -.0044135 49.569)" filter="url(#filter3876)" stroke="#291919" stroke-width=".2" fill="#808080"/>
      <path id="path3741" opacity=".72105" stroke-linejoin="round" d="m46.904 968.36c-16.196 0-29.312 13.116-29.312 29.312s13.116 29.344 29.312 29.344 29.344-13.148 29.344-29.344-13.148-29.312-29.344-29.312zm-0.46725 4.8906c13.497 0 24.422 10.956 24.422 24.453s-10.925 24.422-24.422 24.422-24.453-10.925-24.453-24.422 10.956-24.453 24.453-24.453z" fill-rule="evenodd" stroke="#100e0e" stroke-linecap="round" stroke-miterlimit="0" stroke-width="1.1577"/>
      <path id="path3744" d="m22.787 32.553c17.894-9.1278 32.775-4.7017 47.681-0.38298 0.93078 3.3191 0.5329 6.6383-0.57447 9.9574 0 0-9.5223-4.6391-13.404-2.2979-5.6349 3.3984-5.3617 19.34-5.3617 19.34-3.4486 0.56542-7.5551 1.097-11.489-0.76596 0 0 1.1909-13.655-3.4468-17.234-3.442-2.6566-13.021 0.76596-13.021 0.76596-0.7309-3.1277-1.6282-6.2553-0.38298-9.383z" transform="translate(0 962.36)" stroke="#640f0f" stroke-width=".2" fill="#a52a2a"/>
      <path id="path3746" d="m26.426 40.596c1.1191-5.0235 2.3953-9.3325 5.5532-11.298" transform="translate(0 962.36)" stroke="#470606" stroke-width=".4" fill="none"/>
      <path id="path3750" d="m40.021 52.66c3.5745 1.5051 7.1489 2.4148 10.723 0.38298" transform="translate(0 962.36)" stroke="#582525" stroke-width=".3" fill="none"/>
      <path id="path3796" opacity=".72105" stroke-linejoin="round" d="m76.404 34.372c0 16.234-13.289 29.394-29.681 29.394s-29.681-13.16-29.681-29.394 13.289-29.394 29.681-29.394 29.681 13.16 29.681 29.394z" fill-opacity="0" transform="matrix(.89758 0 0 .90309 5.4451 965.8)" filter="url(#filter3802)" stroke="#b1adad" stroke-linecap="round" stroke-miterlimit="0" stroke-width="1.6296"/>
      <path id="path3828" d="m22.787 36.383c16.617-5.6093 31.799-3.0906 46.915-0.19149" transform="translate(0 962.36)" filter="url(#filter3830)" stroke="#e6d6d6" stroke-width="3" fill="none"/>
      <path id="path3834" opacity=".47368" d="m42.511 44.234 1.5319 7.2766 2.6809-7.2766" transform="translate(0 962.36)" filter="url(#filter3844)" stroke="#ece0e0" stroke-width="1px" fill="none"/>
      <path id="path3858" stroke-linejoin="round" d="m51.894 36c0 2.5382-2.3576 4.5957-5.266 4.5957-2.9083 0-5.266-2.0576-5.266-4.5957 0-2.5382 2.3576-4.5957 5.266-4.5957 2.9083 0 5.266 2.0576 5.266 4.5957z" fill-rule="evenodd" transform="translate(-.76596 962.94)" stroke="#682d2d" stroke-linecap="round" stroke-miterlimit="0" stroke-width=".5" fill="#cd5c5c"/>
      <path id="path3860" opacity=".29474" d="m26.894 1003c1.1191-5.0235 2.3953-9.3325 5.5532-11.298" stroke="#470606" stroke-width=".4" fill="none"/>
      <path id="path3862" stroke="#6c4444" stroke-width=".4" fill="none" d="m66.532 1003.3c-1.1191-5.0235-2.3953-9.3325-5.5532-11.298"/>
      <path id="path3864" opacity=".29474" d="m66.064 1003.3c-1.1191-5.0235-2.3953-9.3325-5.5532-11.298" stroke="#470606" stroke-width=".4" fill="none"/>
    </g>
  </g>
  <metadata>
    <rdf:RDF>
      <cc:Work>
        <dc:format>image/svg+xml</dc:format>
        <dc:type rdf:resource="http://purl.org/dc/dcmitype/StillImage"/>
        <cc:license rdf:resource="http://creativecommons.org/licenses/publicdomain/"/>
        <dc:publisher>
          <cc:Agent rdf:about="http://openclipart.org/">
            <dc:title>Openclipart</dc:title>
          </cc:Agent>
        </dc:publisher>
        <dc:title>steering-wheel2</dc:title>
        <dc:date>2010-07-22T12:30:37</dc:date>
        <dc:description>Automotive clip art by NetAlloy</dc:description>
        <dc:source>http://openclipart.org/detail/74305/steering-wheel2-by-netalloy</dc:source>
        <dc:creator>
          <cc:Agent>
            <dc:title>netalloy</dc:title>
          </cc:Agent>
        </dc:creator>
        <dc:subject>
          <rdf:Bag>
            <rdf:li>automotive</rdf:li>
            <rdf:li>car</rdf:li>
            <rdf:li>clip art</rdf:li>
            <rdf:li>clipart</rdf:li>
            <rdf:li>drive</rdf:li>
            <rdf:li>motor sports</rdf:li>
            <rdf:li>sports2010</rdf:li>
            <rdf:li>steering</rdf:li>
            <rdf:li>steering wheel</rdf:li>
          </rdf:Bag>
        </dc:subject>
      </cc:Work>
      <cc:License rdf:about="http://creativecommons.org/licenses/publicdomain/">
        <cc:permits rdf:resource="http://creativecommons.org/ns#Reproduction"/>
        <cc:permits rdf:resource="http://creativecommons.org/ns#Distribution"/>
        <cc:permits rdf:resource="http://creativecommons.org/ns#DerivativeWorks"/>
      </cc:License>
    </rdf:RDF>
  </metadata>
</svg>
